<svg xmlns="http://www.w3.org/2000/svg" width="800" height="800" viewBox="0 0 800 800">
  <defs>
    <linearGradient id="pattern-gradient" x1="0" y1="0" x2="800" y2="800">
      <stop offset="0%" stop-color="#6366f1" stop-opacity="0.15" />
      <stop offset="50%" stop-color="#8b5cf6" stop-opacity="0.1" />
      <stop offset="100%" stop-color="#22d3ee" stop-opacity="0.15" />
    </linearGradient>
  </defs>

  <rect width="800" height="800" fill="url(#pattern-gradient)" />

  <g fill="#6366f1" opacity="0.06">
    <circle cx="100" cy="100" r="40" />
    <circle cx="300" cy="100" r="30" />
    <circle cx="500" cy="100" r="50" />
    <circle cx="700" cy="100" r="35" />
    <circle cx="200" cy="200" r="45" />
    <circle cx="400" cy="200" r="25" />
    <circle cx="600" cy="200" r="55" />
    <circle cx="100" cy="300" r="50" />
    <circle cx="300" cy="300" r="40" />
    <circle cx="500" cy="300" r="30" />
    <circle cx="700" cy="300" r="45" />
    <circle cx="200" cy="400" r="35" />
    <circle cx="400" cy="400" r="55" />
    <circle cx="600" cy="400" r="25" />
    <circle cx="100" cy="500" r="30" />
    <circle cx="300" cy="500" r="50" />
    <circle cx="500" cy="500" r="40" />
    <circle cx="700" cy="500" r="35" />
    <circle cx="200" cy="600" r="55" />
    <circle cx="400" cy="600" r="30" />
    <circle cx="600" cy="600" r="45" />
    <circle cx="100" cy="700" r="45" />
    <circle cx="300" cy="700" r="25" />
    <circle cx="500" cy="700" r="50" />
    <circle cx="700" cy="700" r="40" />
  </g>
</svg>