<svg xmlns="http://www.w3.org/2000/svg" width="800" height="800" viewBox="0 0 800 800">
  <defs>
    <linearGradient id="mesh-gradient" x1="0" y1="0" x2="800" y2="800">
      <stop offset="0%" stop-color="#6366f1" stop-opacity="0.2" />
      <stop offset="50%" stop-color="#8b5cf6" stop-opacity="0.15" />
      <stop offset="100%" stop-color="#22d3ee" stop-opacity="0.2" />
    </linearGradient>
  </defs>

  <rect width="800" height="800" fill="url(#mesh-gradient)" />

  <g fill="#6366f1" opacity="0.08">
    <rect x="50" y="50" width="100" height="100" rx="20" />
    <rect x="200" y="50" width="80" height="80" rx="16" />
    <rect x="350" y="50" width="120" height="120" rx="24" />
    <rect x="550" y="50" width="90" height="90" rx="18" />
    <rect x="700" y="50" width="60" height="60" rx="12" />
    <rect x="100" y="200" width="90" height="90" rx="18" />
    <rect x="250" y="200" width="110" height="110" rx="22" />
    <rect x="450" y="200" width="70" height="70" rx="14" />
    <rect x="600" y="200" width="130" height="130" rx="26" />
    <rect x="50" y="350" width="80" height="80" rx="16" />
    <rect x="180" y="350" width="100" height="100" rx="20" />
    <rect x="350" y="350" width="90" height="90" rx="18" />
    <rect x="500" y="350" width="110" height="110" rx="22" />
    <rect x="700" y="350" width="80" height="80" rx="16" />
    <rect x="150" y="500" width="120" height="120" rx="24" />
    <rect x="350" y="500" width="70" height="70" rx="14" />
    <rect x="500" y="500" width="90" height="90" rx="18" />
    <rect x="650" y="500" width="100" height="100" rx="20" />
    <rect x="50" y="650" width="90" height="90" rx="18" />
    <rect x="200" y="650" width="80" height="80" rx="16" />
    <rect x="350" y="650" width="110" height="110" rx="22" />
    <rect x="550" y="650" width="70" height="70" rx="14" />
    <rect x="700" y="650" width="90" height="90" rx="18" />
  </g>
</svg>