<svg xmlns="http://www.w3.org/2000/svg" width="1024" height="1024" viewBox="0 0 1024 1024">
  <defs>
    <linearGradient id="app-icon-gradient" x1="0" y1="0" x2="1024" y2="1024">
      <stop offset="0%" stop-color="#6366f1" />
      <stop offset="50%" stop-color="#8b5cf6" />
      <stop offset="100%" stop-color="#22d3ee" />
    </linearGradient>
  </defs>

  <rect x="0" y="0" width="1024" height="1024" rx="224" fill="#0f172a" />
  <rect x="0" y="0" width="1024" height="1024" rx="224" fill="url(#app-icon-gradient)" opacity="0.12" />
  <rect x="0" y="0" width="1024" height="1024" rx="224" fill="none" stroke="url(#app-icon-gradient)" stroke-width="16" />

  <g transform="translate(192, 192)">
    <circle cx="64" cy="64" r="24" fill="#6366f1" opacity="0.8" />
    <circle cx="160" cy="32" r="20" fill="#6366f1" opacity="0.6" />
    <circle cx="96" cy="160" r="32" fill="#6366f1" opacity="0.9" />
    <circle cx="192" cy="128" r="16" fill="#6366f1" opacity="0.5" />
    <circle cx="64" cy="224" r="20" fill="#6366f1" opacity="0.7" />
    <circle cx="160" cy="192" r="28" fill="#6366f1" opacity="0.8" />
  </g>

  <g transform="translate(384, 384)">
    <rect x="0" y="0" width="192" height="36" rx="18" fill="url(#app-icon-gradient)" opacity="0.7" />
    <rect x="0" y="72" width="192" height="36" rx="18" fill="url(#app-icon-gradient)" opacity="0.8" />
    <rect x="0" y="144" width="144" height="36" rx="18" fill="url(#app-icon-gradient)" opacity="0.9" />
  </g>

  <circle cx="512" cy="512" r="42" fill="#22d3ee" opacity="0.9" />
</svg>