<svg xmlns="http://www.w3.org/2000/svg" viewBox="0 0 1128 192">
  <defs>
    <linearGradient id="social-linkedin" x1="0" y1="0" x2="1128" y2="192">
      <stop offset="0%" stop-color="#6366f1" />
      <stop offset="100%" stop-color="#22d3ee" />
    </linearGradient>
  </defs>

  <rect width="1128" height="192" rx="48" fill="#0f172a" />
  <rect width="1128" height="192" rx="48" fill="url(#social-linkedin)" opacity="0.08" />

  <g transform="translate(48, 16)">
    <rect x="0" y="0" width="160" height="160" rx="24" fill="#020617" />
    <rect x="0" y="0" width="160" height="160" rx="24" fill="none" stroke="url(#social-linkedin)" stroke-width="3" />

    <g transform="translate(32, 32)">
      <circle cx="16" cy="16" r="5" fill="#6366f1" opacity="0.8" />
      <circle cx="40" cy="8" r="4" fill="#6366f1" opacity="0.6" />
      <circle cx="24" cy="40" r="8" fill="#6366f1" opacity="0.9" />
      <circle cx="48" cy="32" r="3" fill="#6366f1" opacity="0.5" />
      <circle cx="16" cy="56" r="4" fill="#6366f1" opacity="0.7" />
      <circle cx="40" cy="48" r="6" fill="#6366f1" opacity="0.8" />
    </g>

    <g transform="translate(64, 64)">
      <rect x="0" y="0" width="32" height="5" rx="2.5" fill="url(#social-linkedin)" opacity="0.7" />
      <rect x="0" y="10" width="32" height="5" rx="2.5" fill="url(#social-linkedin)" opacity="0.8" />
      <rect x="0" y="20" width="24" height="5" rx="2.5" fill="url(#social-linkedin)" opacity="0.9" />
    </g>

    <circle cx="80" cy="80" r="6" fill="#22d3ee" opacity="0.9" />
  </g>

  <text x="240" y="80" font-family="Space Grotesk, Inter, sans-serif" font-size="36" font-weight="700" fill="url(#social-linkedin)">RefData Hub</text>
  <text x="240" y="120" font-family="Inter, sans-serif" font-size="16" font-weight="400" fill="#94a3b8">Data Harmonization Platform • Open Source • AI-Powered</text>
</svg>