<svg xmlns="http://www.w3.org/2000/svg" viewBox="0 0 1500 500">
  <defs>
    <linearGradient id="social-twitter-header" x1="0" y1="0" x2="1500" y2="500">
      <stop offset="0%" stop-color="#6366f1" />
      <stop offset="50%" stop-color="#8b5cf6" />
      <stop offset="100%" stop-color="#22d3ee" />
    </linearGradient>
  </defs>

  <rect width="1500" height="500" rx="48" fill="#0f172a" />
  <rect width="1500" height="500" rx="48" fill="url(#social-twitter-header)" opacity="0.08" />

  <g transform="translate(100, 100)">
    <rect x="0" y="0" width="300" height="300" rx="48" fill="#020617" />
    <rect x="0" y="0" width="300" height="300" rx="48" fill="none" stroke="url(#social-twitter-header)" stroke-width="6" />

    <g transform="translate(60, 60)">
      <circle cx="28" cy="28" r="10" fill="#6366f1" opacity="0.8" />
      <circle cx="68" cy="14" r="8" fill="#6366f1" opacity="0.6" />
      <circle cx="42" cy="70" r="14" fill="#6366f1" opacity="0.9" />
      <circle cx="82" cy="56" r="7" fill="#6366f1" opacity="0.5" />
      <circle cx="28" cy="98" r="9" fill="#6366f1" opacity="0.7" />
      <circle cx="68" cy="84" r="12" fill="#6366f1" opacity="0.8" />
    </g>

    <g transform="translate(120, 120)">
      <rect x="0" y="0" width="56" height="10" rx="5" fill="url(#social-twitter-header)" opacity="0.7" />
      <rect x="0" y="20" width="56" height="10" rx="5" fill="url(#social-twitter-header)" opacity="0.8" />
      <rect x="0" y="40" width="42" height="10" rx="5" fill="url(#social-twitter-header)" opacity="0.9" />
    </g>

    <circle cx="150" cy="150" r="12" fill="#22d3ee" opacity="0.9" />
  </g>

  <text x="480" y="180" font-family="Space Grotesk, Inter, sans-serif" font-size="72" font-weight="700" fill="url(#social-twitter-header)">RefData Hub</text>
  <text x="480" y="240" font-family="Inter, sans-serif" font-size="28" font-weight="400" fill="#94a3b8">Data Harmonization Platform</text>
  <text x="480" y="300" font-family="Inter, sans-serif" font-size="24" font-weight="400" fill="#64748b">Transform messy reference data into canonical standards</text>
  <text x="480" y="360" font-family="Inter, sans-serif" font-size="20" font-weight="600" fill="#22d3ee" letter-spacing="0.1em">OPEN SOURCE • SEMANTIC MATCHING</text>
</svg>