<svg xmlns="http://www.w3.org/2000/svg" viewBox="0 0 400 400">
  <defs>
    <linearGradient id="social-twitter" x1="0" y1="0" x2="400" y2="400">
      <stop offset="0%" stop-color="#6366f1" />
      <stop offset="50%" stop-color="#8b5cf6" />
      <stop offset="100%" stop-color="#22d3ee" />
    </linearGradient>
  </defs>

  <rect width="400" height="400" rx="48" fill="#0f172a" />
  <rect width="400" height="400" rx="48" fill="url(#social-twitter)" opacity="0.12" />

  <g transform="translate(112, 112)">
    <rect x="0" y="0" width="176" height="176" rx="32" fill="#020617" />
    <rect x="0" y="0" width="176" height="176" rx="32" fill="none" stroke="url(#social-twitter)" stroke-width="4" />

    <g transform="translate(32, 32)">
      <circle cx="16" cy="16" r="6" fill="#6366f1" opacity="0.8" />
      <circle cx="40" cy="8" r="5" fill="#6366f1" opacity="0.6" />
      <circle cx="24" cy="40" r="8" fill="#6366f1" opacity="0.9" />
      <circle cx="48" cy="32" r="4" fill="#6366f1" opacity="0.5" />
      <circle cx="16" cy="56" r="5" fill="#6366f1" opacity="0.7" />
      <circle cx="40" cy="48" r="7" fill="#6366f1" opacity="0.8" />
    </g>

    <g transform="translate(64, 64)">
      <rect x="0" y="0" width="32" height="6" rx="3" fill="url(#social-twitter)" opacity="0.7" />
      <rect x="0" y="12" width="32" height="6" rx="3" fill="url(#social-twitter)" opacity="0.8" />
      <rect x="0" y="24" width="24" height="6" rx="3" fill="url(#social-twitter)" opacity="0.9" />
    </g>

    <circle cx="88" cy="88" r="7" fill="#22d3ee" opacity="0.9" />
  </g>
</svg>