<svg xmlns="http://www.w3.org/2000/svg" viewBox="0 0 512 512" role="img" aria-label="RefData Hub light mode logo">
  <defs>
    <linearGradient id="logo-light" x1="0" y1="0" x2="512" y2="512" gradientUnits="userSpaceOnUse">
      <stop offset="0%" stop-color="#4f46e5" />
      <stop offset="50%" stop-color="#7c3aed" />
      <stop offset="100%" stop-color="#0891b2" />
    </linearGradient>
    <linearGradient id="logo-data-light" x1="128" y1="128" x2="384" y2="384" gradientUnits="userSpaceOnUse">
      <stop offset="0%" stop-color="#0891b2" stop-opacity="0.5" />
      <stop offset="100%" stop-color="#4f46e5" stop-opacity="0.5" />
    </linearGradient>
  </defs>

  <rect x="32" y="96" width="448" height="320" rx="48" fill="#ffffff" />
  <rect x="32" y="96" width="448" height="320" rx="48" fill="url(#logo-light)" opacity="0.05" />
  <rect x="32" y="96" width="448" height="320" rx="48" fill="none" stroke="url(#logo-light)" stroke-width="3" />

  <g transform="translate(96, 160)">
    <circle cx="24" cy="24" r="8" fill="url(#logo-data-light)" />
    <circle cx="96" cy="16" r="6" fill="url(#logo-data-light)" opacity="0.7" />
    <circle cx="48" cy="64" r="10" fill="url(#logo-data-light)" />
    <circle cx="120" cy="56" r="5" fill="url(#logo-data-light)" opacity="0.6" />
    <circle cx="32" cy="104" r="7" fill="url(#logo-data-light)" opacity="0.8" />
    <circle cx="88" cy="96" r="9" fill="url(#logo-data-light)" />
    <circle cx="16" cy="144" r="6" fill="url(#logo-data-light)" opacity="0.7" />
    <circle cx="72" cy="136" r="8" fill="url(#logo-data-light)" opacity="0.6" />
  </g>

  <g transform="translate(256, 192)">
    <path d="M0 0h96v24H0z" fill="url(#logo-light)" opacity="0.6" />
    <path d="M0 32h96v24H0z" fill="url(#logo-light)" opacity="0.7" />
    <path d="M0 64h96v24H0z" fill="url(#logo-light)" opacity="0.8" />
    <path d="M0 96h72v24H0z" fill="url(#logo-light)" opacity="0.85" />
    <path d="M0 128h48v24H0z" fill="url(#logo-light)" opacity="0.9" />
  </g>

  <path d="M200 256l48-32 32 48" fill="none" stroke="#0891b2" stroke-width="3.5" stroke-linecap="round" stroke-linejoin="round" opacity="0.9" />

  <circle cx="256" cy="256" r="12" fill="#0891b2" opacity="0.85" />

  <g transform="translate(64, 400)">
    <text x="0" y="0" font-family="Space Grotesk, Inter, sans-serif" font-size="40" font-weight="700" fill="url(#logo-light)">RefData Hub</text>
  </g>

  <g transform="translate(256, 400)">
    <text x="0" y="0" font-family="Inter, sans-serif" font-size="16" font-weight="400" fill="#64748b" letter-spacing="0.1em">DATA HARMONIZATION PLATFORM</text>
  </g>
</svg>