<svg xmlns="http://www.w3.org/2000/svg" viewBox="0 0 800 256">
  <defs>
    <linearGradient id="horiz-grad" x1="0%" y1="0%" x2="100%" y2="100%">
      <stop offset="0%" stop-color="#0ea5e9" />
      <stop offset="50%" stop-color="#6366f1" />
      <stop offset="100%" stop-color="#8b5cf6" />
    </linearGradient>
    <filter id="horiz-glow" x="-50%" y="-50%" width="200%" height="200%">
      <feGaussianBlur stdDeviation="2" result="coloredBlur"/>
      <feMerge>
        <feMergeNode in="coloredBlur"/>
        <feMergeNode in="SourceGraphic"/>
      </feMerge>
    </filter>
  </defs>
  
  <!-- Icon -->
  <g transform="translate(32, 32)">
    <rect width="192" height="192" rx="36" fill="#0f172a"/>
    <rect width="192" height="192" rx="36" fill="none" stroke="url(#horiz-grad)" stroke-width="6"/>
    
    <g fill="#0ea5e9" opacity="0.8">
      <circle cx="30" cy="45" r="6"/>
      <circle cx="52" cy="34" r="4.5"/>
      <circle cx="41" cy="64" r="7.5"/>
      <circle cx="26" cy="82" r="5"/>
      <circle cx="49" cy="98" r="6.5"/>
    </g>
    
    <path d="M75 96 L105 96 M100 89 L105 96 L100 103" stroke="#22d3ee" stroke-width="4.5" stroke-linecap="round" stroke-linejoin="round" filter="url(#horiz-glow)"/>
    
    <g fill="#8b5cf6" opacity="0.9">
      <rect x="120" y="38" width="52" height="9" rx="4.5"/>
      <rect x="120" y="56" width="52" height="9" rx="4.5"/>
      <rect x="120" y="74" width="52" height="9" rx="4.5"/>
      <rect x="120" y="92" width="41" height="9" rx="4.5"/>
      <rect x="120" y="110" width="30" height="9" rx="4.5"/>
    </g>
    
    <circle cx="96" cy="96" r="12" fill="#22d3ee" filter="url(#horiz-glow)"/>
  </g>
  
  <!-- Text -->
  <text x="256" y="148" font-family="-apple-system, BlinkMacSystemFont, 'Segoe UI', Roboto, sans-serif" font-size="56" font-weight="700" fill="#0f172a" letter-spacing="-1.5">RefData Hub</text>
  <text x="256" y="178" font-family="-apple-system, BlinkMacSystemFont, 'Segoe UI', Roboto, sans-serif" font-size="16" font-weight="500" fill="#64748b" letter-spacing="4">DATA HARMONIZATION PLATFORM</text>
</svg>