<svg xmlns="http://www.w3.org/2000/svg" viewBox="0 0 256 384" role="img" aria-label="RefData Hub stacked logo">
  <defs>
    <linearGradient id="logo-stack" x1="0" y1="0" x2="256" y2="384" gradientUnits="userSpaceOnUse">
      <stop offset="0%" stop-color="#6366f1" />
      <stop offset="50%" stop-color="#8b5cf6" />
      <stop offset="100%" stop-color="#22d3ee" />
    </linearGradient>
    <linearGradient id="logo-data-stack" x1="0" y1="0" x2="256" y2="256" gradientUnits="userSpaceOnUse">
      <stop offset="0%" stop-color="#22d3ee" stop-opacity="0.6" />
      <stop offset="100%" stop-color="#6366f1" stop-opacity="0.6" />
    </linearGradient>
  </defs>

  <rect x="16" y="16" width="224" height="224" rx="36" fill="#0f172a" />
  <rect x="16" y="16" width="224" height="224" rx="36" fill="url(#logo-stack)" opacity="0.1" />
  <rect x="16" y="16" width="224" height="224" rx="36" fill="none" stroke="url(#logo-stack)" stroke-width="3" />

  <g transform="translate(32, 32)">
    <circle cx="16" cy="16" r="6" fill="url(#logo-data-stack)" />
    <circle cx="56" cy="12" r="5" fill="url(#logo-data-stack)" opacity="0.8" />
    <circle cx="24" cy="40" r="8" fill="url(#logo-data-stack)" />
    <circle cx="72" cy="36" r="4" fill="url(#logo-data-stack)" opacity="0.7" />
    <circle cx="20" cy="64" r="5" fill="url(#logo-data-stack)" opacity="0.9" />
    <circle cx="52" cy="60" r="7" fill="url(#logo-data-stack)" />
    <circle cx="12" cy="88" r="5" fill="url(#logo-data-stack)" opacity="0.8" />
    <circle cx="44" cy="84" r="6" fill="url(#logo-data-stack)" opacity="0.7" />
  </g>

  <g transform="translate(112, 48)">
    <path d="M0 0h64v16H0z" fill="url(#logo-stack)" opacity="0.5" />
    <path d="M0 24h64v16H0z" fill="url(#logo-stack)" opacity="0.6" />
    <path d="M0 48h64v16H0z" fill="url(#logo-stack)" opacity="0.7" />
    <path d="M0 72h48v16H0z" fill="url(#logo-stack)" opacity="0.8" />
    <path d="M0 96h32v16H0z" fill="url(#logo-stack)" opacity="0.9" />
  </g>

  <path d="M96 112l32-24 24 32" fill="none" stroke="#22d3ee" stroke-width="3" stroke-linecap="round" stroke-linejoin="round" opacity="0.9" />

  <circle cx="112" cy="112" r="8" fill="#22d3ee" opacity="0.8" />

  <text x="128" y="300" font-family="Space Grotesk, Inter, sans-serif" font-size="36" font-weight="700" fill="url(#logo-stack)" text-anchor="middle">RefData Hub</text>
  <text x="128" y="328" font-family="Inter, sans-serif" font-size="12" font-weight="400" fill="#94a3b8" letter-spacing="0.1em" text-anchor="middle">DATA HARMONIZATION PLATFORM</text>
</svg>