<svg xmlns="http://www.w3.org/2000/svg" width="180" height="180" viewBox="0 0 180 180">
  <defs>
    <linearGradient id="ios-med" x1="0" y1="0" x2="180" y2="180">
      <stop offset="0%" stop-color="#6366f1" />
      <stop offset="100%" stop-color="#22d3ee" />
    </linearGradient>
  </defs>

  <rect width="180" height="180" rx="40" fill="white" />

  <g transform="translate(34, 34)">
    <rect x="0" y="0" width="112" height="112" rx="24" fill="#0f172a" />
    <rect x="0" y="0" width="112" height="112" rx="24" fill="none" stroke="url(#ios-med)" stroke-width="4" />

    <g transform="translate(20, 20)">
      <circle cx="8" cy="8" r="4" fill="#6366f1" opacity="0.8" />
      <circle cx="20" cy="4" r="3" fill="#6366f1" opacity="0.6" />
      <circle cx="12" cy="20" r="5" fill="#6366f1" opacity="0.9" />
      <circle cx="24" cy="16" r="2" fill="#6366f1" opacity="0.5" />
      <circle cx="8" cy="28" r="3" fill="#6366f1" opacity="0.7" />
      <circle cx="20" cy="24" r="4" fill="#6366f1" opacity="0.8" />
    </g>

    <g transform="translate(48, 48)">
      <rect x="0" y="0" width="24" height="4" rx="2" fill="url(#ios-med)" opacity="0.7" />
      <rect x="0" y="8" width="24" height="4" rx="2" fill="url(#ios-med)" opacity="0.8" />
      <rect x="0" y="16" width="18" height="4" rx="2" fill="url(#ios-med)" opacity="0.9" />
    </g>

    <circle cx="56" cy="56" r="5" fill="#22d3ee" opacity="0.9" />
  </g>
</svg>