<svg xmlns="http://www.w3.org/2000/svg" viewBox="0 0 24 24" fill="none" stroke="currentColor" stroke-width="1.5" stroke-linecap="round" stroke-linejoin="round">
  <path d="M12 9.25a2.75 2.75 0 1 0 0 5.5 2.75 2.75 0 0 0 0-5.5Z" />
  <path d="M19 12a7 7 0 0 0-.09-1.14l1.48-.86-1.5-2.6-1.5.86a7 7 0 0 0-1.97-1.14l-.23-1.72H8.81l-.23 1.72A7 7 0 0 0 6.6 8.26l-1.5-.86-1.5 2.6 1.48.86A7 7 0 0 0 5 12c0 .39.03.77.09 1.14l-1.48.86 1.5 2.6 1.5-.86a7 7 0 0 0 1.97 1.14l.23 1.72h4.96l.23-1.72a7 7 0 0 0 1.97-1.14l1.5.86 1.5-2.6-1.48-.86A7 7 0 0 0 19 12Z" />
</svg>